<svg xmlns="http://www.w3.org/2000/svg" x="0px" y="0px"
width="50" height="50"
viewBox="0 0 192 192"
style=" fill:#000000;"><g fill="none" fill-rule="nonzero" stroke="none" stroke-width="1" stroke-linecap="butt" stroke-linejoin="miter" stroke-miterlimit="10" stroke-dasharray="" stroke-dashoffset="0" font-family="none" font-weight="none" font-size="none" text-anchor="none" style="mix-blend-mode: normal"><path d="M0,192v-192h192v192z" fill="none"></path><g fill="#ffffff"><g id="surface1"><path d="M95.94,26.82c-0.24,0.015 -0.465,0.03 -0.705,0.09c-16.11,0.135 -31.2,4.59 -44.175,12.27c-0.315,0.135 -0.615,0.315 -0.9,0.525c-13.185,8.025 -24.09,19.44 -31.56,33c-0.195,0.27 -0.36,0.555 -0.48,0.87c-6.54,12.195 -10.29,26.1 -10.41,40.845c-0.105,0.51 -0.105,1.02 0,1.515c0.12,16.23 4.17,30.48 12.045,43.545c0.915,1.515 2.76,2.205 4.455,1.665c1.695,-0.54 2.805,-2.175 2.67,-3.945l0.18,2.355l14.415,-8.355c1.23,-0.66 1.995,-1.935 1.995,-3.33c0.015,-1.395 -0.735,-2.685 -1.95,-3.375c-1.215,-0.69 -2.7,-0.66 -3.9,0.06l-12.81,7.425c-5.46,-10.11 -8.76,-20.715 -9.33,-32.94h15.24c1.38,0.015 2.67,-0.705 3.375,-1.905c0.69,-1.2 0.69,-2.67 0,-3.87c-0.705,-1.2 -1.995,-1.92 -3.375,-1.905h-15.24c0.525,-11.13 3.345,-21.63 7.92,-31.125c2.16,1.17 5.61,3.03 13.365,7.245c1.215,0.69 2.7,0.675 3.9,-0.045c1.185,-0.72 1.905,-2.04 1.845,-3.42c-0.045,-1.395 -0.84,-2.655 -2.085,-3.3c-7.755,-4.2 -11.19,-6.06 -13.365,-7.23c6.15,-10.125 14.37,-18.825 24.195,-25.38l7.905,13.155c0.69,1.185 1.98,1.92 3.36,1.905c1.395,-0.03 2.655,-0.78 3.33,-1.995c0.66,-1.215 0.615,-2.7 -0.105,-3.87l-7.905,-13.155c10.305,-5.535 21.945,-8.88 34.32,-9.465v15.24c-0.015,1.38 0.705,2.67 1.905,3.375c1.2,0.69 2.67,0.69 3.87,0c1.2,-0.705 1.92,-1.995 1.905,-3.375v-15.24c11.13,0.525 21.66,3.285 31.155,7.86l-7.275,13.425c-0.69,1.215 -0.675,2.7 0.045,3.9c0.72,1.185 2.04,1.905 3.42,1.845c1.395,-0.045 2.655,-0.84 3.3,-2.085l7.26,-13.41c10.125,6.135 18.795,14.415 25.35,24.24l-13.155,7.905c-1.185,0.69 -1.92,1.98 -1.905,3.36c0.03,1.395 0.78,2.655 1.995,3.33c1.215,0.66 2.7,0.615 3.87,-0.105l13.155,-7.905c5.535,10.305 8.88,21.945 9.465,34.32h-15.24c-1.38,-0.015 -2.67,0.705 -3.375,1.905c-0.69,1.2 -0.69,2.67 0,3.87c0.705,1.2 1.995,1.92 3.375,1.905h15.24c-0.57,12.225 -3.87,22.83 -9.315,32.94l-12.825,-7.425c-1.2,-0.72 -2.685,-0.75 -3.9,-0.06c-1.215,0.69 -1.965,1.98 -1.95,3.375c0,1.395 0.765,2.67 1.995,3.33l14.415,8.355l0.18,-2.355c-0.135,1.77 0.975,3.405 2.67,3.945c1.695,0.54 3.54,-0.15 4.455,-1.665c7.875,-13.05 11.925,-27.3 12.06,-43.5c0.09,-0.51 0.09,-1.035 0,-1.53c-0.15,-16.14 -4.62,-31.26 -12.33,-44.235c-0.105,-0.285 -0.255,-0.54 -0.435,-0.795c-0.015,0 -0.015,0 -0.015,0c0,-0.015 -0.015,-0.015 -0.03,-0.03c-8.01,-13.17 -19.395,-24.06 -32.925,-31.53c-0.33,-0.255 -0.69,-0.435 -1.065,-0.57c-12.18,-6.51 -26.04,-10.26 -40.77,-10.38c-0.255,-0.06 -0.525,-0.09 -0.795,-0.09zM140.385,85.17c-0.735,-0.015 -1.455,0.18 -2.085,0.57l-34.98,20.67c-1.995,-1.68 -4.53,-2.73 -7.32,-2.73c-6.315,0 -11.52,5.205 -11.52,11.52c0,6.315 5.205,11.52 11.52,11.52c6.315,0 11.52,-5.205 11.52,-11.52c0,-0.75 -0.09,-1.5 -0.225,-2.22l34.905,-20.64c1.5,-0.855 2.235,-2.61 1.815,-4.275c-0.42,-1.665 -1.905,-2.85 -3.63,-2.895zM96,111.36c1.215,0 2.235,0.555 2.925,1.395c0.15,0.405 0.375,0.765 0.66,1.095c0.15,0.42 0.255,0.87 0.255,1.35c0,2.16 -1.68,3.84 -3.84,3.84c-2.16,0 -3.84,-1.68 -3.84,-3.84c0,-2.16 1.68,-3.84 3.84,-3.84zM72.96,145.92c-1.38,-0.015 -2.67,0.705 -3.375,1.905c-0.69,1.2 -0.69,2.67 0,3.87c0.705,1.2 1.995,1.92 3.375,1.905h46.08c1.38,0.015 2.67,-0.705 3.375,-1.905c0.69,-1.2 0.69,-2.67 0,-3.87c-0.705,-1.2 -1.995,-1.92 -3.375,-1.905z"></path></g></g></g></svg>