<?xml version="1.0" encoding="utf-8"?>
<!-- Generator: Adobe Illustrator 23.0.3, SVG Export Plug-In . SVG Version: 6.00 Build 0)  -->
<svg version="1.1" id="Layer_1" xmlns="http://www.w3.org/2000/svg" xmlns:xlink="http://www.w3.org/1999/xlink" x="0px" y="0px"
	 viewBox="0 0 50 50" style="enable-background:new 0 0 50 50;" xml:space="preserve">
<style type="text/css">
	.st0{fill:#FFFFFF;stroke:#FFFFFF;stroke-width:2;stroke-miterlimit:10;}
	.st1{fill:#FF8B00;stroke:#FFFFFF;stroke-width:2;stroke-miterlimit:10;}
	.st2{fill:#ED0F2F;stroke:#FFFFFF;stroke-width:2;stroke-miterlimit:10;}
	.st3{fill:#1FAD30;stroke:#FFFFFF;stroke-width:2;stroke-miterlimit:10;}
	.st4{fill:#111CEA;stroke:#FFFFFF;stroke-width:2;stroke-miterlimit:10;}
</style>
<g id="surface1">
	<path class="st0" d="M18,6c0,0-0.1,0-0.1,0H4C3.4,6,3,6.4,3,7v36c0,0.6,0.4,1,1,1h13.8c0.1,0,0.2,0,0.3,0h13.7c0.1,0,0.2,0,0.3,0
		H46c0.6,0,1-0.4,1-1V25.2c0-0.1,0-0.2,0-0.3V7c0-0.6-0.4-1-1-1H18.2C18.1,6,18,6,18,6z M5,8h12v16.8c0,0.1,0,0.2,0,0.3V42H5V8z
		 M19,8h26v16H32.2c-0.1,0-0.1,0-0.2,0c0,0-0.1,0-0.1,0H19V8z M19,26h12v16H19V26z M33,26h12v16H33V26z"/>
</g>
<rect x="5" y="8" class="st1" width="12" height="34"/>
<rect x="19" y="8" class="st2" width="26" height="16"/>
<rect x="33" y="26" class="st3" width="12" height="16"/>
<rect x="19" y="26" class="st4" width="12" height="16"/>
</svg>
