<?xml version="1.0" encoding="utf-8"?>
<!-- Generator: Adobe Illustrator 23.0.2, SVG Export Plug-In . SVG Version: 6.00 Build 0)  -->
<svg version="1.1" id="Layer_1" xmlns="http://www.w3.org/2000/svg" xmlns:xlink="http://www.w3.org/1999/xlink" x="0px" y="0px"
	 viewBox="0 0 24 24" style="enable-background:new 0 0 24 24;" xml:space="preserve">
<style type="text/css">
	.st0{fill:none;stroke:#000000;stroke-width:2;stroke-miterlimit:10;}
</style>
<circle class="st0" cx="12" cy="12" r="8"/>
<g id="surface1">
	<path d="M15.8,14.9l-0.9,0.9c-0.2,0.2-0.4,0.2-0.6,0L12,13.5l-2.3,2.3c-0.2,0.2-0.4,0.2-0.6,0l-0.9-0.9c-0.2-0.2-0.2-0.4,0-0.6
		l2.3-2.3L8.2,9.7C8,9.5,8,9.3,8.2,9.1l0.9-0.9C9.3,8,9.5,8,9.7,8.2l2.3,2.3l2.3-2.3c0.2-0.2,0.4-0.2,0.6,0l0.9,0.9
		c0.2,0.2,0.2,0.4,0,0.6L13.5,12l2.3,2.3C16,14.5,16,14.7,15.8,14.9z"/>
</g>
</svg>
