<?xml version="1.0" encoding="utf-8"?>
<!-- Generator: Adobe Illustrator 23.0.2, SVG Export Plug-In . SVG Version: 6.00 Build 0)  -->
<svg version="1.1" id="Layer_1" xmlns="http://www.w3.org/2000/svg" xmlns:xlink="http://www.w3.org/1999/xlink" x="0px" y="0px"
	 viewBox="0 0 30 30" style="enable-background:new 0 0 30 30;" xml:space="preserve">
<path d="M15,3c-0.6,0-1,0.4-1,1c0,0.6,0.4,1,1,1c0,0,0,0,0,0c5.5,0,10,4.5,10,10s-4.5,10-10,10c-0.6,0-1,0.4-1,1c0,0.6,0.4,1,1,1
	c0,0,0,0,0,0c6.6,0,12-5.4,12-12S21.6,3,15,3z M21,11c-0.3,0-0.5,0.1-0.7,0.3L14,17.6l-2.3-2.3c-0.4-0.4-1-0.4-1.4,0s-0.4,1,0,1.4
	c0,0,0,0,0,0l3,3c0.4,0.4,1,0.4,1.4,0l7-7c0.4-0.4,0.4-1,0-1.4C21.5,11.1,21.3,11,21,11z"/>
<path d="M15,27c0.6,0,1-0.4,1-1s-0.4-1-1-1c0,0,0,0,0,0C9.5,25,5,20.5,5,15S9.5,5,15,5c0.6,0,1-0.4,1-1s-0.4-1-1-1c0,0,0,0,0,0
	C8.4,3,3,8.4,3,15S8.4,27,15,27z"/>
</svg>
