<?xml version="1.0" encoding="utf-8"?>
<!-- Generator: Adobe Illustrator 23.0.2, SVG Export Plug-In . SVG Version: 6.00 Build 0)  -->
<svg version="1.1" id="Layer_1" xmlns="http://www.w3.org/2000/svg" xmlns:xlink="http://www.w3.org/1999/xlink" x="0px" y="0px"
	 viewBox="0 0 48 48" style="enable-background:new 0 0 48 48;" xml:space="preserve">
<style type="text/css">
	.st0{fill:#FFC107;}
	.st1{fill:#FF3D00;}
	.st2{fill:#4CAF50;}
	.st3{fill:#1976D2;}
</style>
<g id="surface1">
	<path class="st0" d="M42,20.2"/>
	<path class="st0" d="M24,20.2v8h11.3c-1.7,4.7-6.1,8-11.3,8c-6.6,0-12-5.4-12-12s5.4-12,12-12c3.1,0,5.8,1.2,8,3l5.7-5.7
		C34,6.3,29.3,4.2,24,4.2c-11,0-20,9-20,20s9,20,20,20s20-9,20-20c0-1.3-0.1-2.6-0.4-3.9"/>
	<path class="st1" d="M6.3,14.9l6.6,4.8c1.8-4.4,6.1-7.5,11.1-7.5c3.1,0,5.8,1.2,8,3l5.7-5.7C34,6.3,29.3,4.2,24,4.2
		C16.3,4.2,9.7,8.6,6.3,14.9z"/>
	<path class="st2" d="M24,44.2c5.2,0,9.9-2,13.4-5.2l-6.2-5.2c-2,1.5-4.5,2.4-7.2,2.4c-5.2,0-9.6-3.3-11.3-7.9l-6.5,5
		C9.5,39.8,16.2,44.2,24,44.2z"/>
	<path class="st3" d="M24,20.2v8h11.3c-0.8,2.2-2.2,4.2-4.1,5.6c0,0,0,0,0,0l6.2,5.2C37,39.4,44,34.2,44,24.2c0-1.3-0.1-2.7-0.4-4"
		/>
</g>
</svg>
