<?xml version="1.0" encoding="utf-8"?>
<!-- Generator: Adobe Illustrator 23.0.3, SVG Export Plug-In . SVG Version: 6.00 Build 0)  -->
<svg version="1.1" id="Layer_1" xmlns="http://www.w3.org/2000/svg" xmlns:xlink="http://www.w3.org/1999/xlink" x="0px" y="0px"
	 viewBox="0 0 24 24" style="enable-background:new 0 0 24 24;" xml:space="preserve">
<style type="text/css">
	.st0{fill:#FFFFFF;}
	.st1{fill:#ED1E2D;}
</style>
<path class="st0" d="M12,2c-0.8,0-1.5,0.7-1.5,1.5v0.7C7.9,4.9,6,7.2,6,10v6l-1.5,1.2h0C4.2,17.3,4,17.7,4,18c0,0.6,0.4,1,1,1h7h7
	c0.6,0,1-0.4,1-1c0-0.3-0.2-0.7-0.5-0.8L18,16v-6c0-2.8-1.9-5.1-4.5-5.8V3.5C13.5,2.7,12.8,2,12,2z M10,20c0,1.1,0.9,2,2,2
	s2-0.9,2-2H10z"/>
<circle class="st1" cx="16.3" cy="5.7" r="2.3"/>
</svg>
