<?xml version="1.0" encoding="utf-8"?>
<!-- Generator: Adobe Illustrator 23.0.2, SVG Export Plug-In . SVG Version: 6.00 Build 0)  -->
<svg version="1.1" id="Layer_1" xmlns="http://www.w3.org/2000/svg" xmlns:xlink="http://www.w3.org/1999/xlink" x="0px" y="0px"
	 viewBox="0 0 26 26" style="enable-background:new 0 0 26 26; fill:white;" xml:space="preserve">
<g id="surface1">
	<path d="M23.9,11.5l0,3c0,0.5-0.4,1-1,1l-7.4,0l0,7.4c0,0.5-0.4,1-1,1l-3,0c-0.5,0-1-0.4-1-1l0-7.4H3.1c-0.5,0-1-0.5-1-1v-3
		c0-0.5,0.4-1,1-1l7.4,0V3.1c0-0.5,0.4-1,1-1l3,0c0.5,0,1,0.4,1,1l0,7.4l7.4,0C23.4,10.5,23.9,11,23.9,11.5z"/>
</g>
</svg>
