<svg
 xmlns="http://www.w3.org/2000/svg"
 xmlns:xlink="http://www.w3.org/1999/xlink"
 width="841px" height="1440px">
<path fill-rule="evenodd"  fill="rgb(245, 245, 245)"
 d="M63.500,1282.000 L777.500,1282.000 C812.570,1282.000 841.000,1310.430 841.000,1345.500 L841.000,1376.500 C841.000,1411.570 812.570,1440.000 777.500,1440.000 L63.500,1440.000 C28.430,1440.000 -0.000,1411.570 -0.000,1376.500 L-0.000,1345.500 C-0.000,1310.430 28.430,1282.000 63.500,1282.000 Z"/>
<path fill-rule="evenodd"  fill="rgb(0, 108, 154)"
 d="M349.689,0.664 L46.370,54.157 L275.627,1354.096 C280.423,1381.291 306.357,1399.448 333.551,1394.652 L538.390,1358.527 C565.585,1353.731 583.742,1327.797 578.946,1300.603 L349.689,0.664 Z"/>
<path fill-rule="evenodd"  fill="rgb(38, 150, 228)"
 d="M-0.000,1141.000 L841.000,1141.000 L841.000,1282.000 L-0.000,1282.000 L-0.000,1141.000 Z"/>
<path fill-rule="evenodd"  fill="rgb(3, 95, 135)"
 d="M505.311,37.664 L808.630,91.157 L579.373,1391.096 C574.577,1418.291 548.643,1436.448 521.449,1431.652 L316.610,1395.527 C289.415,1390.731 271.258,1364.797 276.054,1337.603 L505.311,37.664 Z"/>
</svg>
