<svg xmlns="http://www.w3.org/2000/svg" viewBox="0 0 30 30">
    <path style="line-height:normal;text-indent:0;text-align:start;text-decoration-line:none;text-decoration-style:solid;text-decoration-color:#000;text-transform:none;block-progression:tb;isolation:auto;mix-blend-mode:normal" d="M 15 0 C 13.35499 0 12 1.3549904 12 3 L 10 3 L 8 3 C 6.3550302 3 5 4.3550302 5 6 L 5 24 C 5 25.64497 6.3550302 27 8 27 L 22 27 C 23.64497 27 25 25.64497 25 24 L 25 6 C 25 4.3550302 23.64497 3 22 3 L 20 3 L 18 3 C 18 1.3549904 16.64501 0 15 0 z M 15 2 C 15.564129 2 16 2.4358706 16 3 C 16 3.5641294 15.564129 4 15 4 C 14.435871 4 14 3.5641294 14 3 C 14 2.4358706 14.435871 2 15 2 z M 8 5 L 10 5 C 10 6.105 10.895 7 12 7 L 18 7 C 19.105 7 20 6.105 20 5 L 22 5 C 22.56503 5 23 5.4349698 23 6 L 23 24 C 23 24.56503 22.56503 25 22 25 L 8 25 C 7.4349698 25 7 24.56503 7 24 L 7 6 C 7 5.4349698 7.4349698 5 8 5 z M 19.015625 10 C 18.696125 10.00025 18.376812 10.123188 18.132812 10.367188 L 17.25 11.25 L 19.75 13.75 L 20.632812 12.867188 C 21.120812 12.379188 21.123766 11.589562 20.634766 11.101562 L 19.898438 10.365234 C 19.654438 10.121234 19.335125 9.99975 19.015625 10 z M 16 12.5 L 10.392578 18.107422 L 11.1875 18.5625 L 11.5 19.5 L 12.4375 19.8125 L 12.892578 20.607422 L 18.5 15 L 16 12.5 z M 9.5566406 20.056641 L 9.0234375 21.568359 A 0.31200001 0.31200001 0 0 0 9 21.6875 A 0.31200001 0.31200001 0 0 0 9.3125 22 A 0.31200001 0.31200001 0 0 0 9.4238281 21.978516 L 9.4257812 21.978516 A 0.31200001 0.31200001 0 0 1 9.4277344 21.978516 L 10.943359 21.443359 L 9.5566406 20.056641 z" font-weight="400" font-family="sans-serif" white-space="normal" overflow="visible"></path>
</svg>
