<?xml version="1.0" encoding="utf-8"?>
<!-- Generator: Adobe Illustrator 23.0.2, SVG Export Plug-In . SVG Version: 6.00 Build 0)  -->
<svg version="1.1" id="Layer_1" xmlns="http://www.w3.org/2000/svg" xmlns:xlink="http://www.w3.org/1999/xlink" x="0px" y="0px"
	 viewBox="0 0 128 128" style="enable-background:new 0 0 128 128;" xml:space="preserve">
<path d="M32,26.5c-8.8,0-16,7.2-16,16s7.2,16,16,16s16-7.2,16-16S40.8,26.5,32,26.5z M32,32.5c5.5,0,10,4.5,10,10s-4.5,10-10,10
	s-10-4.5-10-10S26.5,32.5,32,32.5z M59,33.5c-1.7,0-3,1.3-3,3s1.3,3,3,3h50c1.7,0,3-1.3,3-3s-1.3-3-3-3H59z M59,45.5
	c-1.7,0-3,1.3-3,3s1.3,3,3,3h20c1.7,0,3-1.3,3-3s-1.3-3-3-3H59z M32,69.5c-8.8,0-16,7.2-16,16s7.2,16,16,16s16-7.2,16-16
	S40.8,69.5,32,69.5z M59,76.5c-1.7,0-3,1.3-3,3s1.3,3,3,3h50c1.7,0,3-1.3,3-3s-1.3-3-3-3H59z M59,88.5c-1.7,0-3,1.3-3,3s1.3,3,3,3
	h20c1.7,0,3-1.3,3-3s-1.3-3-3-3H59z"/>
</svg>
