<?xml version="1.0" encoding="utf-8"?>
<!-- Generator: Adobe Illustrator 23.0.2, SVG Export Plug-In . SVG Version: 6.00 Build 0)  -->
<svg version="1.1" id="Layer_1" xmlns="http://www.w3.org/2000/svg" xmlns:xlink="http://www.w3.org/1999/xlink" x="0px" y="0px"
	 viewBox="0 0 24 24" style="enable-background:new 0 0 24 24;" xml:space="preserve">
<path d="M6,3C4.4,3,3,4.4,3,6v12c0,1.6,1.4,3,3,3h12c1.6,0,3-1.4,3-3V6c0-1.6-1.4-3-3-3H6z M6,5h12c0.6,0,1,0.4,1,1v12
	c0,0.6-0.4,1-1,1H6c-0.6,0-1-0.4-1-1V6C5,5.4,5.4,5,6,5z M12,7c-0.6,0-1,0.5-1,1v3H8c-0.6,0-1,0.4-1,1s0.4,1,1,1l0,0h3v3
	c0,0.6,0.4,1,1,1s1-0.4,1-1l0,0v-3h3c0.6,0,1-0.4,1-1s-0.4-1-1-1l0,0h-3V8C13,7.4,12.6,7,12,7L12,7z"/>
<g id="surface1">
	<path d="M12.7,17.2h-1.4c-0.3,0-0.4-0.2-0.4-0.4v-3.6H7.3c-0.3,0-0.4-0.2-0.4-0.4v-1.4c0-0.3,0.2-0.4,0.4-0.4h3.6V7.3
		c0-0.3,0.2-0.4,0.4-0.4h1.4c0.3,0,0.4,0.2,0.4,0.4v3.6h3.6c0.3,0,0.4,0.2,0.4,0.4v1.4c0,0.3-0.2,0.4-0.4,0.4h-3.6v3.6
		C13.2,17,13,17.2,12.7,17.2z"/>
</g>
</svg>
