<?xml version="1.0" encoding="utf-8"?>
<!-- Generator: Adobe Illustrator 23.0.2, SVG Export Plug-In . SVG Version: 6.00 Build 0)  -->
<svg version="1.1" id="Layer_1" xmlns="http://www.w3.org/2000/svg" xmlns:xlink="http://www.w3.org/1999/xlink" x="0px" y="0px"
	 viewBox="0 0 26 26" style="enable-background:new 0 0 26 26;" xml:space="preserve">
<style type="text/css">
	.st0{fill:#E82020;}
	.st1{fill:#FFFFFF;}
</style>
<circle class="st0" cx="13" cy="13" r="9"/>
<g id="surface1">
	<path class="st1" d="M18.4,17.1l-1.3,1.3c-0.2,0.2-0.6,0.2-0.9,0L13,15.2l-3.3,3.3c-0.2,0.2-0.6,0.2-0.9,0l-1.3-1.3
		c-0.2-0.2-0.2-0.6,0-0.9l3.3-3.3L7.6,9.7c-0.2-0.2-0.2-0.6,0-0.9l1.3-1.3c0.2-0.2,0.6-0.2,0.9,0l3.3,3.3l3.3-3.3
		c0.2-0.2,0.6-0.2,0.9,0l1.3,1.3c0.2,0.2,0.2,0.6,0,0.9L15.2,13l3.3,3.3C18.7,16.5,18.7,16.9,18.4,17.1z"/>
</g>
</svg>
