<?xml version="1.0" encoding="utf-8"?>
<!-- Generator: Adobe Illustrator 23.0.2, SVG Export Plug-In . SVG Version: 6.00 Build 0)  -->
<svg version="1.1" id="Layer_1" xmlns="http://www.w3.org/2000/svg" xmlns:xlink="http://www.w3.org/1999/xlink" x="0px" y="0px"
	 viewBox="0 0 24 24" style="enable-background:new 0 0 24 24;" xml:space="preserve">
<path d="M19.6,6H4.4C4.2,6,4,6.2,4,6.4v1.1C4,7.8,4.2,8,4.4,8h15.1C19.8,8,20,7.8,20,7.6V6.4C20,6.2,19.8,6,19.6,6z"/>
<path d="M19.5,10h-15C4.2,10,4,10.2,4,10.5v1C4,11.8,4.2,12,4.5,12h15c0.3,0,0.5-0.2,0.5-0.5v-1C20,10.2,19.8,10,19.5,10z"/>
<path d="M12.5,14H4.5C4.2,14,4,14.2,4,14.5v1.1C4,15.8,4.2,16,4.5,16h8.1c0.3,0,0.5-0.2,0.5-0.5v-1.1C13,14.2,12.8,14,12.5,14z"/>
</svg>
