<?xml version="1.0" encoding="utf-8"?>
<!-- Generator: Adobe Illustrator 23.0.2, SVG Export Plug-In . SVG Version: 6.00 Build 0)  -->
<svg version="1.1" id="Layer_1" xmlns="http://www.w3.org/2000/svg" xmlns:xlink="http://www.w3.org/1999/xlink" x="0px" y="0px"
	 viewBox="0 0 24 24" style="enable-background:new 0 0 24 24;" xml:space="preserve">
<style type="text/css">
	.st0{fill:#FFFFFF;}
</style>
<path class="st0" d="M4,4C3.3,4,2.7,4.3,2.4,4.8c-0.2,0.3-0.1,0.8,0.2,1l8.8,5.5c0.4,0.2,0.9,0.2,1.2,0l8.7-5.5
	c0.4-0.2,0.5-0.7,0.2-1.1C21.2,4.3,20.6,4,20,4H4z M21.5,8.1c-0.1,0-0.2,0-0.2,0.1l-8.7,5.5c-0.4,0.2-0.9,0.2-1.2,0L2.7,8.2
	C2.4,8,2,8.3,2,8.6V18c0,1.1,0.9,2,2,2h16c1.1,0,2-0.9,2-2V8.6C22,8.3,21.8,8.1,21.5,8.1z"/>
</svg>
