<svg xmlns="http://www.w3.org/2000/svg" viewBox="0 0 50 50">
    <path style="fill:white;" d="M 41 2 C 37.145851 2 34 5.1458514 34 9 C 34 12.854149 37.145851 16 41 16 C 44.854149 16 48 12.854149 48 9 C 48 5.1458514 44.854149 2 41 2 z M 41 4 C 43.773268 4 46 6.2267316 46 9 C 46 11.773268 43.773268 14 41 14 C 38.226732 14 36 11.773268 36 9 C 36 6.2267316 38.226732 4 41 4 z M 7.0136719 5 C 6.4746719 5 5.9688437 5.2098438 5.5898438 5.5898438 C 5.2158437 5.9638438 5 6.4826719 5 7.0136719 L 5 42.511719 C 5 43.176719 5.2585156 43.801484 5.7285156 44.271484 C 6.1985156 44.741484 6.8232813 45 7.4882812 45 L 42.539062 45 C 43.896063 45 45 43.896063 45 42.539062 L 45 17.052734 C 44.371 17.366734 43.702 17.609531 43 17.769531 L 43 42.539062 C 43 42.793062 42.793063 43 42.539062 43 L 7.4882812 43 C 7.3592812 43 7.2335781 42.946469 7.1425781 42.855469 C 7.0515781 42.765469 7 42.640719 7 42.511719 L 7.0136719 7 L 32.230469 7 C 32.390469 6.298 32.633266 5.629 32.947266 5 L 7.0136719 5 z"></path>
</svg>
