<svg xmlns="http://www.w3.org/2000/svg" xmlns:xlink="http://www.w3.org/1999/xlink" viewBox="0 0 26 26" version="1.1">
<g id="surface1">
<path style=" " d="M 3 10 C 1.34375 10 0 11.34375 0 13 C 0 14.65625 1.34375 16 3 16 C 4.65625 16 6 14.65625 6 13 C 6 11.34375 4.65625 10 3 10 Z M 13 10 C 11.34375 10 10 11.34375 10 13 C 10 14.65625 11.34375 16 13 16 C 14.65625 16 16 14.65625 16 13 C 16 11.34375 14.65625 10 13 10 Z M 23 10 C 21.34375 10 20 11.34375 20 13 C 20 14.65625 21.34375 16 23 16 C 24.65625 16 26 14.65625 26 13 C 26 11.34375 24.65625 10 23 10 Z "></path>
</g>
</svg>
